# xmcd CD database file
#
# Track frame offsets:
#	150
#	15155
#	35267
#	57985
#	74703
#	89906
#	104976
#	115210
#	136757
#	156964
#	172211
#	193000
#	211907
#	227719
#	240705
#	252301
#	264932
#	281588
#	303719
#	320659
#	335658
#
# Disc length: 4681 seconds
#
# Revision: 0
# Processed by: cddbd v1.5.2PL0 Copyright (c) Steve Scherf et al.
# Submitted via: CDex 1.51
#
DISCID=44124715
DTITLE=Various Artist - New Folk Sounds - The Best Of Alternative Country [CD1]
DYEAR=2008
DGENRE=Country
TTITLE0=The Waifs - Lighthouse
TTITLE1=The Audreys - Oh Honey
TTITLE2=Ryan Adams - Sweet Illusions
TTITLE3=Tim O'Reagan - Highway Flowers
TTITLE4=Kasey Chambers - Nothing At All
TTITLE5=Fionn Regan - Be Good Or Be Gone
TTITLE6=Old 97's - Question
TTITLE7=Midlake - Roscoe
TTITLE8=Mark Knopfler - A Place Where We Used To Live
TTITLE9=Beth Orton - Conceived
TTITLE10=The Frames - Falling Slowly
TTITLE11=My Morning Jacket - Wordless Chorus
TTITLE12=Willie Nelson - Blue Hotel
TTITLE13=Son Volt - Tulsa Country
TTITLE14=Uncle Tupelo - Acuff-Rose
TTITLE15=K.D. Lang - I'm Down To My Last Cigarette
TTITLE16=Jesse Malin - Queen Of The Underworld
TTITLE17=Violent Femmes - Country Death Song
TTITLE18=Rosanne Cash - Black Cadillac
TTITLE19=Rufus Wainwright - California
TTITLE20=Holly Throsby - By This River
EXTD=YEAR: 2008
EXTT0=
EXTT1=
EXTT2=
EXTT3=
EXTT4=
EXTT5=
EXTT6=
EXTT7=
EXTT8=
EXTT9=
EXTT10=
EXTT11=
EXTT12=
EXTT13=
EXTT14=
EXTT15=
EXTT16=
EXTT17=
EXTT18=
EXTT19=
EXTT20=
PLAYORDER=
